<?xml version="1.0" encoding="utf-8"?><svg xmlns="http://www.w3.org/2000/svg" viewBox="0 0 512 512.00257" width="163px" height="163px" xmlns:xlink="http://www.w3.org/1999/xlink" style="width:100%;height:100%;background-size:initial;background-repeat-y:initial;background-repeat-x:initial;background-position-y:initial;background-position-x:initial;background-origin:initial;background-color:initial;background-clip:initial;background-attachment:initial;animation-play-state:paused" ><g class="ldl-scale" style="transform-origin:50% 50%;transform:rotate(0deg) scale(0.7, 0.7);animation-play-state:paused" ><path fill="#685c79" d="m51.722656 148.140625c2.636719 12.082031-5.769531 20.574219-17.851562 23.207031-12.082032 2.636719-23.261719-1.582031-25.898438-13.660156-2.632812-12.082031 6.097656-19.972656 18.175782-22.609375 12.082031-2.636719 22.941406.984375 25.574218 13.0625zm0 0" style="fill:rgb(104, 92, 121);animation-play-state:paused" ></path>
<path fill="#685c79" d="m145.890625 127.601562c2.632813 12.082032-5.773437 20.574219-17.855469 23.207032-12.082031 2.636718-23.261718-1.582032-25.894531-13.664063-2.636719-12.082031 6.09375-19.972656 18.175781-22.605469 12.082032-2.636718 22.9375.980469 25.574219 13.0625zm0 0" style="fill:rgb(104, 92, 121);animation-play-state:paused" ></path>
<path fill="#685c79" d="m125.382812 33.582031-94.167968 20.542969-4.691406-21.507812c-.683594-3.136719 1.304687-6.234376 4.441406-6.921876l82.804687-18.0625c3.140625-.683593 6.238281 1.304688 6.921875 4.441407zm0 0" style="fill:rgb(104, 92, 121);animation-play-state:paused" ></path>
<g fill="#ff2c5c" style="animation-play-state:paused" ><path d="m371.445312 458.007812c-4.476562 11.527344-16.175781 13.957032-27.703124 9.480469-11.523438-4.476562-18.515626-14.167969-14.035157-25.695312 4.476563-11.527344 16.113281-13.28125 27.640625-8.800781 11.527344 4.476562 18.578125 13.492187 14.097656 25.015624zm0 0" style="fill:rgb(255, 44, 92);animation-play-state:paused" ></path>
<path d="m461.285156 492.914062c-4.480468 11.523438-16.179687 13.957032-27.703125 9.476563-11.527343-4.476563-18.515625-14.167969-14.039062-25.695313 4.480469-11.523437 16.117187-13.277343 27.644531-8.800781 11.523438 4.476563 18.574219 13.492188 14.097656 25.019531zm0 0" style="fill:rgb(255, 44, 92);animation-play-state:paused" ></path>
<path d="m496.132812 403.214844-89.835937-34.902344 7.96875-20.519531c1.164063-2.992188 4.535156-4.476563 7.527344-3.3125l79 30.691406c2.992187 1.160156 4.476562 4.53125 3.3125 7.523437zm0 0" style="fill:rgb(255, 44, 92);animation-play-state:paused" ></path>
<path d="m325.320312 250.320312-167.589843 167.578126c-17.570313 17.582031-46.058594 17.582031-63.628907 0-3.679687-3.679688-6.589843-7.839844-8.71875-12.277344l-.011718-.011719c-8.078125-16.75-5.160156-37.449219 8.730468-51.339844l167.578126-167.589843zm0 0" style="fill:rgb(255, 44, 92);animation-play-state:paused" ></path></g>
<path fill="#e62753" d="m325.320312 250.320312-167.589843 167.578126c-17.570313 17.582031-46.058594 17.582031-63.628907 0-3.679687-3.679688-6.589843-7.839844-8.71875-12.277344 16.699219 7.898437 37.257813 4.957031 51.078126-8.863282l167.589843-167.589843-.058593-.179688zm0 0" style="fill:rgb(230, 39, 83);animation-play-state:paused" ></path>
<path fill="#685c79" d="m201.578125 325.980469-15.558594-15.554688c-1.5625-1.5625-1.5625-4.097656 0-5.660156l36.769531-36.769531c1.5625-1.558594 4.097657-1.558594 5.65625 0l15.558594 15.558594c1.5625 1.5625 1.5625 4.09375 0 5.65625l-36.769531 36.769531c-1.5625 1.5625-4.09375 1.5625-5.65625 0zm0 0" style="fill:rgb(104, 92, 121);animation-play-state:paused" ></path>
<path fill="#ffd659" d="m225.617188 307.59375-21.210938-21.210938 18.382812-18.386718c1.5625-1.558594 4.097657-1.558594 5.65625 0l15.558594 15.558594c1.5625 1.5625 1.5625 4.09375 0 5.65625zm0 0" style="fill:rgb(255, 214, 89);animation-play-state:paused" ></path>
<path fill="#685c79" d="m393.910156 238.300781c-37.101562 37.097657-67.457031 66.894531-127.28125 7.070313-59.820312-59.824219-30.027344-90.179688 7.074219-127.28125 37.097656-37.097656 76.769531-57.578125 127.277344-7.070313 50.507812 50.511719 30.027343 90.179688-7.070313 127.28125zm0 0" style="fill:rgb(104, 92, 121);animation-play-state:paused" ></path>
<path fill="#594f69" d="m400.980469 111.019531c-3.789063-3.785156-7.511719-7.167969-11.179688-10.179687 37.15625 45.261718 17.070313 81.78125-17.25 116.101562-34.746093 34.746094-63.578125 63.078125-116.242187 17.390625 3.09375 3.566407 6.527344 7.242188 10.320312 11.039063 59.824219 59.820312 90.179688 30.027344 127.28125-7.074219 37.097656-37.097656 57.582032-76.765625 7.070313-127.277344zm0 0" style="fill:rgb(89, 79, 105);animation-play-state:paused" ></path>
<path fill="#ffd659" d="m233.632812 193.992188-9.054687 29.378906 63.847656 63.84375 29.585938-8.847656zm0 0" style="fill:rgb(255, 214, 89);animation-play-state:paused" ></path>
<path fill="#ffbd54" d="m267.214844 266.007812 30.105468-8.328124 20.691407 20.6875-29.585938 8.847656zm0 0" style="fill:rgb(255, 189, 84);animation-play-state:paused" ></path>
<path d="m80.839844 50.976562 38.804687-8.464843 14.027344 64.324219c-4.558594-.890626-9.621094-.785157-14.964844.378906-7.855469 1.714844-14.296875 5.214844-18.632812 10.128906-5.140625 5.828125-7.015625 13.429688-5.273438 21.40625 2.761719 12.664062 13.195313 20.3125 26.574219 20.3125 2.644531 0 5.410156-.300781 8.25-.917969 7.855469-1.714843 14.292969-5.378906 18.621094-10.605469 4.929687-5.949218 6.691406-13.59375 4.960937-21.527343l-25.199219-115.535157c-1.5625-7.171874-8.671874-11.734374-15.84375-10.167968l-82.804687 18.0625c-3.476563.753906-6.449219 2.820312-8.367187 5.816406-1.921876 2.992188-2.5625 6.554688-1.804688 10.027344l20.320312 93.160156c-4.5625-.886719-9.625-.785156-14.964843.378906-7.859375 1.714844-14.300781 5.21875-18.632813 10.128906-5.144531 5.828126-7.015625 13.429688-5.273437 21.40625 2.761719 12.664063 13.195312 20.316407 26.570312 20.316407 2.648438 0 5.410157-.300781 8.25-.921875 7.855469-1.710938 14.296875-5.378906 18.625-10.601563 4.929688-5.953125 6.691407-13.597656 4.960938-21.53125l-18.910157-86.695312 8.703126-1.898438c4.046874-.882812 6.613281-4.878906 5.730468-8.925781-.882812-4.046875-4.878906-6.613281-8.925781-5.730469l-8.707031 1.898438-2.730469-12.53125 79.511719-17.34375 2.730468 12.53125-38.804687 8.464843c-4.046875.882813-6.613281 4.878907-5.726563 8.925782.878907 4.046875 4.878907 6.613281 8.925782 5.730468zm-48.578125 113.050782c-3.414063.746094-14.722657 2.375-16.972657-7.933594-1.984374-9.109375 6.945313-12.480469 12.449219-13.683594 1.851563-.402344 3.832031-.683594 5.769531-.683594 4.917969 0 9.527344 1.8125 10.878907 8.019532 2.246093 10.308594-8.710938 13.539062-12.125 14.28125zm94.167969-20.539063c-3.414063.746094-14.722657 2.371094-16.972657-7.933593-.734375-3.378907-.144531-6.011719 1.867188-8.289063 2.175781-2.464844 5.933593-4.378906 10.582031-5.394531 1.851562-.402344 3.832031-.683594 5.769531-.683594 4.914063 0 9.523438 1.8125 10.878907 8.019531 2.246093 10.304688-8.714844 13.535157-12.125 14.28125zm0 0" style="animation-play-state:paused" ></path>
<path d="m510.863281 375.242188c-1.433593-3.257813-4.046875-5.757813-7.363281-7.046876l-79-30.695312c-6.847656-2.65625-14.570312.75-17.230469 7.589844l-34.53125 88.878906c-3.308593-3.261719-7.585937-5.96875-12.683593-7.949219-16.765626-6.515625-31.777344-1.261719-37.347657 13.074219-5.621093 14.472656 1.90625 29.03125 18.3125 35.40625 4.496094 1.746094 8.957031 2.628906 13.207031 2.628906 2.832032 0 5.574219-.390625 8.171876-1.175781 7.398437-2.238281 13.089843-7.636719 16.03125-15.203125v-.003906l32.132812-82.710938 37.75 14.667969c3.863281 1.5 8.207031-.414063 9.707031-4.277344 1.5-3.859375-.414062-8.207031-4.273437-9.707031l-37.75-14.664062 4.644531-11.957032 75.859375 29.472656-4.648438 11.957032-8.277343-3.21875c-3.859375-1.5-8.207031.414062-9.707031 4.277344-1.5 3.859374.414062 8.207031 4.273437 9.707031l8.28125 3.214843-23.84375 61.367188c-3.308594-3.261719-7.585937-5.96875-12.683594-7.949219-7.496093-2.914062-14.800781-3.554687-21.125-1.855469-7.503906 2.019532-13.265625 7.320313-16.222656 14.929688-2.941406 7.570312-2.386719 15.398438 1.558594 22.039062 3.464843 5.835938 9.261719 10.457032 16.753906 13.367188 4.511719 1.753906 8.945313 2.597656 13.117187 2.597656 11.007813 0 20.214844-5.859375 24.292969-16.351562l42.820313-110.222656c1.289062-3.316407 1.207031-6.933594-.226563-10.1875zm-152.804687 86.347656c-3.207032.972656-7.328125.589844-11.609375-1.074219-3.253907-1.261719-13.582031-6.15625-9.761719-15.988281 1.890625-4.863282 5.636719-6.339844 9.492188-6.339844 3.03125 0 6.132812.914062 8.441406 1.8125 4.378906 1.699219 7.714844 4.128906 9.398437 6.832031 1.5625 2.515625 1.699219 5.207031.425781 8.480469-1.285156 3.3125-3.375 5.367188-6.386718 6.277344zm78.234375 33.832031c-4.277344-1.664063-7.578125-4.164063-9.289063-7.046875-1.605468-2.703125-1.761718-5.628906-.476562-8.945312 1.253906-3.21875 3.199218-5.085938 6.136718-5.875 1.027344-.273438 2.160157-.414063 3.375-.414063 2.539063 0 5.425782.597656 8.425782 1.761719 4.378906 1.703125 7.714844 4.128906 9.394531 6.835937 1.566406 2.511719 1.699219 5.207031.429687 8.476563-3.820312 9.835937-14.742187 6.472656-17.996093 5.207031zm0 0" style="animation-play-state:paused" ></path>
<path d="m196.265625 331.296875c2.242187 2.242187 5.1875 3.363281 8.128906 3.363281 2.945313 0 5.890625-1.121094 8.132813-3.363281l18.386718-18.382813 18.382813-18.386718c4.484375-4.484375 4.484375-11.78125 0-16.265625l-15.554687-15.554688c-.5625-.5625-1.164063-1.050781-1.804688-1.472656-4.460938-2.941406-10.535156-2.453125-14.460938 1.472656l-36.769531 36.769531c-4.480469 4.484376-4.484375 11.777344 0 16.265626zm29.34375-55.507813 10.609375 10.605469-10.609375 10.605469-10.605469-10.605469zm-21.214844 21.210938 10.609375 10.609375-10.609375 10.605469-10.605469-10.605469zm0 0" style="animation-play-state:paused" ></path>
<path d="m318.425781 286.082031c3.351563.585938 6.609375.878907 9.777344.878907 27.65625 0 48.789063-21.132813 71.007813-43.347657 33.742187-33.746093 65.042968-79.914062 7.066406-137.890625-57.972656-57.976562-104.140625-26.675781-137.886719 7.070313-24.75 24.75-48.136719 48.164062-42.472656 80.746093l-8.15625 26.464844-94.957031 94.960938c-2.925782 2.925781-2.925782 7.675781 0 10.605468 1.464843 1.464844 3.386718 2.195313 5.304687 2.195313s3.839844-.730469 5.304687-2.195313l91.367188-91.371093 53.027344 53.03125-125.390625 125.382812c-7.082031 7.085938-16.496094 10.988281-26.511719 10.988281-10.011719 0-19.429688-3.902343-26.511719-10.988281-7.085937-7.082031-10.988281-16.496093-10.988281-26.511719 0-10.015624 3.902344-19.429687 10.988281-26.515624l11.398438-11.394532c2.929687-2.929687 2.929687-7.679687 0-10.609375-2.929688-2.929687-7.675781-2.929687-10.605469 0l-11.398438 11.398438c-9.917968 9.914062-15.382812 23.097656-15.382812 37.121093 0 14.023438 5.464844 27.207032 15.382812 37.117188 9.914063 9.917969 23.097657 15.382812 37.121094 15.382812 14.019532 0 27.203125-5.464843 37.117188-15.382812l129.355468-129.347656zm-39.429687-162.683593c20.667968-20.667969 37.996094-31.566407 54.53125-34.292969 20.175781-3.332031 40.496094 5.574219 62.144531 27.222656 21.644531 21.644531 30.550781 41.972656 27.222656 62.144531-2.730469 16.539063-13.625 33.863282-34.292969 54.53125-22.628906 22.632813-42.257812 42.257813-66.953124 38.414063l-81.0625-81.066407c-3.84375-24.6875 15.78125-44.320312 38.410156-66.953124zm-41.871094 84.707031 66.6875 66.691406-13.257812 3.964844-57.488282-57.492188zm0 0" style="animation-play-state:paused" ></path>
<path d="m315.773438 143.1875c-2.925782-2.929688-7.675782-2.929688-10.605469 0-2.929688 2.925781-2.929688 7.675781 0 10.605469 2.929687 2.929687 7.679687 2.929687 10.605469 0 2.929687-2.929688 2.929687-7.679688 0-10.605469zm0 0" style="animation-play-state:paused" ></path>
<path d="m342.289062 169.699219c-2.929687-2.929688-7.675781-2.929688-10.605468 0-2.929688 2.925781-2.929688 7.675781 0 10.605469 2.929687 2.929687 7.675781 2.929687 10.605468 0 2.929688-2.929688 2.929688-7.679688 0-10.605469zm0 0" style="animation-play-state:paused" ></path>
<path d="m368.804688 196.214844c-2.929688-2.929688-7.679688-2.929688-10.605469 0-2.929688 2.929687-2.929688 7.679687 0 10.605468 2.925781 2.929688 7.675781 2.929688 10.605469 0 2.929687-2.925781 2.929687-7.675781 0-10.605468zm0 0" style="animation-play-state:paused" ></path>
<path d="m399.605469 138.542969c-2.929688-2.929688-7.679688-2.929688-10.609375 0-2.925782 2.929687-2.925782 7.679687 0 10.609375 2.929687 2.925781 7.679687 2.925781 10.609375 0 2.925781-2.929688 2.925781-7.679688 0-10.609375zm0 0" style="animation-play-state:paused" ></path>
<path d="m373.476562 112.417969c-2.929687-2.929688-7.679687-2.929688-10.609374 0-2.925782 2.929687-2.925782 7.675781 0 10.605469 2.929687 2.929687 7.679687 2.929687 10.609374 0 2.925782-2.929688 2.925782-7.675782 0-10.605469zm0 0" style="animation-play-state:paused" ></path>
<path d="m311.136719 227.019531c-2.929688-2.929687-7.679688-2.929687-10.609375 0-2.925782 2.925781-2.925782 7.675781 0 10.605469 2.929687 2.929688 7.679687 2.929688 10.609375 0 2.925781-2.929688 2.925781-7.679688 0-10.605469zm0 0" style="animation-play-state:paused" ></path>
<path d="m285.007812 200.886719c-2.929687-2.929688-7.679687-2.929688-10.609374 0-2.929688 2.929687-2.929688 7.675781 0 10.605469 2.929687 2.929687 7.679687 2.929687 10.609374 0 2.925782-2.929688 2.925782-7.675782 0-10.605469zm0 0" style="animation-play-state:paused" ></path>
<path d="m348.003906 110.960938c-2.929687-2.929688-7.679687-2.929688-10.609375 0-2.929687 2.925781-2.929687 7.675781 0 10.605468 2.929688 2.929688 7.679688 2.929688 10.609375 0 2.925782-2.929687 2.925782-7.679687 0-10.605468zm0 0" style="animation-play-state:paused" ></path>
<path d="m374.515625 137.476562c-2.929687-2.929687-7.675781-2.929687-10.605469 0-2.929687 2.929688-2.929687 7.675782 0 10.605469 2.929688 2.929688 7.675782 2.929688 10.605469 0 2.929687-2.929687 2.929687-7.675781 0-10.605469zm0 0" style="animation-play-state:paused" ></path>
<path d="m401.03125 163.988281c-2.929688-2.929687-7.679688-2.929687-10.609375 0-2.925781 2.929688-2.925781 7.679688 0 10.605469 2.929687 2.929688 7.679687 2.929688 10.609375 0 2.925781-2.925781 2.925781-7.675781 0-10.605469zm0 0" style="animation-play-state:paused" ></path>
<path d="m283.550781 175.421875c-2.925781-2.929687-7.675781-2.929687-10.605469 0-2.929687 2.929687-2.929687 7.679687 0 10.605469 2.929688 2.929687 7.679688 2.929687 10.605469 0 2.929688-2.925782 2.929688-7.675782 0-10.605469zm0 0" style="animation-play-state:paused" ></path>
<path d="m310.0625 201.929688c-2.925781-2.929688-7.675781-2.929688-10.605469 0-2.929687 2.929687-2.929687 7.675781 0 10.605468 2.929688 2.929688 7.679688 2.929688 10.605469 0 2.929688-2.929687 2.929688-7.675781 0-10.605468zm0 0" style="animation-play-state:paused" ></path>
<path d="m336.578125 228.441406c-2.929687-2.929687-7.675781-2.929687-10.605469 0-2.929687 2.929688-2.929687 7.675782 0 10.605469 2.929688 2.929687 7.675782 2.929687 10.605469 0s2.929687-7.675781 0-10.605469zm0 0" style="animation-play-state:paused" ></path>
<path d="m371.203125 166.945312c-2.929687-2.929687-7.675781-2.929687-10.605469 0-2.929687 2.929688-2.929687 7.675782 0 10.605469 2.929688 2.929688 7.675782 2.929688 10.605469 0 2.929687-2.929687 2.929687-7.675781 0-10.605469zm0 0" style="animation-play-state:paused" ></path>
<path d="m398.074219 193.820312c-2.929688-2.929687-7.675781-2.929687-10.605469 0-2.929688 2.925782-2.929688 7.675782 0 10.605469 2.929688 2.929688 7.675781 2.929688 10.605469 0 2.929687-2.929687 2.929687-7.679687 0-10.605469zm0 0" style="animation-play-state:paused" ></path>
<path d="m318.171875 113.910156c-2.929687-2.925781-7.675781-2.925781-10.605469 0-2.929687 2.929688-2.929687 7.679688 0 10.609375 2.929688 2.929688 7.675782 2.929688 10.605469 0 2.929687-2.929687 2.929687-7.679687 0-10.609375zm0 0" style="animation-play-state:paused" ></path>
<path d="m345.074219 140.816406c-2.929688-2.929687-7.675781-2.929687-10.605469 0-2.929688 2.929688-2.929688 7.679688 0 10.605469 2.929688 2.929687 7.675781 2.929687 10.605469 0 2.929687-2.925781 2.929687-7.675781 0-10.605469zm0 0" style="animation-play-state:paused" ></path>
<path d="m339.535156 198.613281c-2.929687-2.929687-7.679687-2.929687-10.609375 0-2.925781 2.929688-2.925781 7.679688 0 10.605469 2.929688 2.929688 7.679688 2.929688 10.609375 0 2.925782-2.925781 2.925782-7.675781 0-10.605469zm0 0" style="animation-play-state:paused" ></path>
<path d="m366.40625 225.488281c-2.929688-2.929687-7.675781-2.929687-10.605469 0-2.929687 2.929688-2.929687 7.675781 0 10.605469 2.929688 2.929688 7.675781 2.929688 10.605469 0s2.929688-7.675781 0-10.605469zm0 0" style="animation-play-state:paused" ></path>
<path d="m286.503906 145.582031c-2.929687-2.929687-7.679687-2.929687-10.605468 0-2.929688 2.929688-2.929688 7.679688 0 10.605469 2.925781 2.929688 7.675781 2.929688 10.605468 0 2.929688-2.925781 2.929688-7.675781 0-10.605469zm0 0" style="animation-play-state:paused" ></path>
<path d="m313.40625 172.488281c-2.929688-2.929687-7.679688-2.929687-10.605469 0-2.929687 2.929688-2.929687 7.675781 0 10.605469 2.925781 2.929688 7.675781 2.929688 10.605469 0s2.929688-7.675781 0-10.605469zm0 0" style="animation-play-state:paused" ></path></g><!-- generated by https://loading.io/ --></svg>